<?xml version="1.0" encoding="utf-8"?>
<!-- Generator: Adobe Illustrator 21.0.0, SVG Export Plug-In . SVG Version: 6.00 Build 0)  -->
<svg version="1.1" id="Layer_1" xmlns="http://www.w3.org/2000/svg" xmlns:xlink="http://www.w3.org/1999/xlink" x="0px" y="0px"
	 viewBox="0 0 100 125" style="enable-background:new 0 0 100 125;" xml:space="preserve">
<path d="M50,95c24.9,0,45-20.1,45-45S74.9,5,50,5S5,25.1,5,50S25.1,95,50,95z M52.5,20.8c4.1,0,7.5,3.4,7.5,7.5s-3.4,7.5-7.5,7.5
	S45,32.4,45,28.3S48.4,20.8,52.5,20.8z M50,39.3c7.5,0,9.3,4.4,8.5,9.9L55,71.8c0,0,2.5,0,7.5-2.5c0,0-2.5,10-12.5,10
	c-7.5,0-9.3-4.4-8.5-9.9L45,46.8c0,0-2.5,0-7.5,2.5C37.5,49.3,40,39.3,50,39.3z"/>
</svg>
