<?xml version="1.0" encoding="utf-8"?>
<!-- Generator: Adobe Illustrator 21.0.0, SVG Export Plug-In . SVG Version: 6.00 Build 0)  -->
<svg version="1.1" id="Layer_1" xmlns="http://www.w3.org/2000/svg" xmlns:xlink="http://www.w3.org/1999/xlink" x="0px" y="0px"
	 viewBox="0 0 100 125" style="enable-background:new 0 0 100 125;" xml:space="preserve">
<g>
	<path d="M45,9.9c2-4,8.5-3.7,10.2,0.4c3.5,7,6.7,14.3,10.2,21.4c7.9,1.1,15.8,1.9,23.7,3c4.3,0.4,6.6,6.4,3.5,9.5
		c-5.7,5.7-11.8,11.1-17.6,16.6c1.4,7.8,3.1,15.5,4.4,23.3c1.1,4.4-4.3,8.6-8.3,6.2c-7.1-3.6-14-7.7-21.1-11.4
		c-6.8,3.7-13.5,7.5-20.3,11.1c-2.8,1.9-7.2,0.8-8.6-2.3c-1-2.1-0.3-4.4,0-6.5c1.3-6.8,2.6-13.5,3.9-20.3
		c-5.7-5.4-11.6-10.7-17.2-16.1c-2.3-2-2.5-6-0.4-8.2c1.7-2,4.4-1.9,6.8-2.3c6.8-0.8,13.6-1.7,20.3-2.5C38.1,24.4,41.3,17,45,9.9
		L45,9.9z"/>
</g>
</svg>
