<?xml version="1.0" standalone="no"?>
<!DOCTYPE svg PUBLIC "-//W3C//DTD SVG 1.1//EN" "http://www.w3.org/Graphics/SVG/1.1/DTD/svg11.dtd" >
<svg xmlns="http://www.w3.org/2000/svg">
<metadata>Generated by IcoMoon</metadata>
<defs>
<font id="icomoon" horiz-adv-x="1024">
<font-face units-per-em="1024" ascent="960" descent="-64" />
<missing-glyph horiz-adv-x="1024" />
<glyph unicode="&#x20;" horiz-adv-x="512" d="" />
<glyph unicode="&#x41;" glyph-name="A" d="M472 882q-97 0-183-37-86-38-150.5-102.5t-101.5-150.5-37-184q0-97 37-183t101.5-150.5 150.5-101.5q85-37 183-37 97 0 184 37 86 37 150.5 101.5t101.5 150.5q38 85 38 183 0 97-36 184-37 86-100.5 150.5t-150.5 101.5q-86 38-187 38zM544 94h-134v432h134v-432zM472 582q-28 0-49 19.5t-21 42.5q0 30 17.5 51t52.5 21q36 0 54-21t18-51q0-22-18-42t-54-20z" />
<glyph unicode="&#x42;" glyph-name="B" d="M860 644h-68v116q0 10-5.5 16t-16.5 6h-520q-7 0-14.5-5.5t-7.5-16.5v-120h-68q-30 0-50-21t-20-51v-450q0-30 20-50t50-20h50q0-10 5.5-16t16.5-6h40q9 0 15.5 5.5t6.5 16.5h432q0-10 5.5-16t16.5-6h40q10 0 16 5.5t6 16.5h50q30 0 50 20t20 50v454q0 30-20 51t-50 21zM276 738h476v-94h-476v94zM886 122q0-9-5.5-15.5t-16.5-6.5h-704q-10 0-16 6.5t-6 15.5v450q0 10 5.5 16t16.5 6h700q9 0 15.5-5.5t6.5-16.5zM210 244h284q10 0 16 5.5t6 16.5v258q0 10-5.5 16t-16.5 6h-284q-10 0-17-5.5t-7-16.5v-258q0-7 6.5-14.5t17.5-7.5zM232 328h22q10 0 16 5.5t6 16.5q0 10-5.5 16t-16.5 6h-22v44h66q10 0 16 6.5t6 17.5q0 9-5.5 15.5t-16.5 6.5h-66v34h240v-204h-240v36zM708 502q-63 0-107.5-44.5t-44.5-107.5 44.5-107.5 107.5-44.5 107.5 44.5 44.5 107.5q0 60-46 106t-106 46zM708 244q-43 0-72.5 30.5t-29.5 71.5q0 43 30.5 72.5t71.5 29.5q40 0 71-30.5t31-71.5q0-40-29-71t-73-31zM232 198h-22q-10 0-17-5.5t-7-16.5q0-9 6.5-15.5t17.5-6.5h22q9 0 15.5 6.5t6.5 15.5q0 10-6.5 16t-15.5 6zM320 198h-22q-10 0-16-5.5t-6-16.5q0-9 5.5-15.5t16.5-6.5h22q10 0 16 6.5t6 15.5q4 10-3.5 16t-18.5 6zM414 198h-22q-10 0-16-5.5t-6-16.5q0-9 5.5-15.5t16.5-6.5h22q10 0 16 6.5t6 15.5q0 10-5.5 16t-16.5 6zM504 198h-24q-9 0-15.5-5.5t-6.5-16.5q0-9 6.5-15.5t15.5-6.5h24q9 0 15.5 6.5t6.5 15.5q0 10-6.5 16t-15.5 6z" />
<glyph unicode="&#x43;" glyph-name="C" d="M814 880q-6 6-15.5 6.5t-18.5-2.5l-432-146q-10-7-16-16.5t-6-23.5v-406q-13 7-27 10.5t-31 3.5q-57 0-95.5-40t-38.5-94q0-57 40-95.5t94-38.5q52 0 92 40t40 94v498l352 126v-348q-13 6-27 10t-31 4q-57 0-95.5-40t-38.5-94q0-57 40.5-95.5t93.5-38.5q57 0 95.5 40t38.5 94v520q3 10-1.5 19.5t-12.5 12.5zM268 118q-24 0-41 17.5t-17 40.5q0 24 17 41t41 17q22 0 40-17t18-41q0-27-17.5-42.5t-40.5-15.5zM698 270q-22 0-39 17t-17 41q0 22 16.5 40t39.5 18q24 0 41-17.5t17-40.5q-3-24-18.5-41t-39.5-17z" />
<glyph unicode="&#x44;" glyph-name="D" d="M128 780v-664q0-19 16-35.5t36-16.5h152q19 0 35.5 16t16.5 36v664q0 19-16 35.5t-36 16.5h-152q-19 0-35.5-16t-16.5-36zM640 780v-664q0-19 16-35.5t36-16.5h152q19 0 35.5 16t16.5 36v664q0 19-16 35.5t-36 16.5h-152q-19 0-35.5-16t-16.5-36z" />
<glyph unicode="&#x45;" glyph-name="E" d="M314 646h48v-46h-48v46zM420 646h290v-46h-290v46zM314 526h48v-46h-48v46zM420 526h290v-46h-290v46zM314 414h48v-46h-48v46zM420 414h290v-46h-290v46zM314 296h48v-46h-48v46zM420 296h290v-46h-290v46z" />
<glyph unicode="&#x46;" glyph-name="F" d="M926 740v174q0 12-6.5 19t-17.5 7h-780q-10-4-17-12t-7-20v-174q-39 0-65.5-26.5t-26.5-65.5v-394q0-37 26.5-64.5t65.5-27.5h128v-200q0-10 6.5-18t17.5-8h538q12 0 19 7.5t7 18.5v200h112q39 0 65.5 27t26.5 65v400q4 37-24.5 64.5t-67.5 27.5zM148 884h728v-144h-728v144zM762-12h-486v306h486v-306zM968 254q0-16-11-29t-31-13h-112v82h30q12 0 19 7t7 19-7 19-19 7h-664q-12 0-19-7t-7-19 7-19 19-7h46v-82h-128q-16 0-29 11t-13 31v394q0 15 11 27.5t31 12.5h834q15 0 27.5-10t12.5-30v-394h-4zM798 596q-30 0-50-20t-20-52q0-30 20-50t50-20q31 0 51.5 20t20.5 50q0 31-20 51.5t-52 20.5zM798 510q-7 0-13.5 6t-6.5 14q0 7 6 13.5t14 6.5q7 0 14.5-6t7.5-14q0-12-7-16t-15-4zM594 596q-31 0-51.5-20t-20.5-52q0-30 20-50t52-20q30 0 51 20t21 50q0 31-21 51.5t-51 20.5zM594 510q-7 0-13.5 6t-6.5 14q0 7 6 13.5t14 6.5q7 0 13.5-6t6.5-14q-3-12-7.5-16t-12.5-4z" />
<glyph unicode="&#x47;" glyph-name="G" d="M654 386q3-3 9-6.5t9-3.5q7 0 11.5 3.5t10.5 6.5q27 30 40.5 68.5t13.5 77.5q0 46-16.5 86.5t-49.5 73.5q-34 34-74 51t-88 17q-46 0-85.5-16.5t-74.5-51.5q-33-33-49.5-73t-16.5-87q0-39 13.5-77.5t40.5-68.5q6-10 19-10t21 10q9 6 9 17.5t-9 22.5q-21 22-30.5 49t-9.5 57q0 34 12.5 65.5t35.5 54.5q24 24 55.5 37t64.5 13 65-13 55-37q24-22 37-53.5t13-66.5q0-30-10-56.5t-30-49.5q-3-10-0.5-22t8.5-18zM824 836q-30 30-65 53t-73.5 39-80.5 24q-41 8-85 8-43 0-84-8t-79.5-24-73.5-39-65-53-53-65-39-73.5-24-80.5q-8-41-8-85 0-79 29.5-153t86.5-131q6-10 19-10t21 10q6 6 7.5 17.5t-7.5 22.5q-48 49-73 114t-25 136q0 72 28 140t78 122q54 52 119.5 79t142.5 27q73 0 141.5-28t122.5-78q49-57 77.5-125.5t28.5-142.5q0-69-25.5-132t-72.5-116q-6-10-6-22t6-18q3-4 9-7t9-3q7 0 11.5 2.5t10.5 7.5q54 60 83 134t29 154q1 43-6 85t-22.5 80.5-38.5 73.5-53 65zM570 492q-10 27-24 33.5t-20 6.5q-10 0-22.5-6.5t-23.5-33.5l-196-480q-9-27-5-43.5t15-24.5q13-9 29.5-8.5t36.5 14.5l160 102 162-102q9-7 19-10.5t21-3.5q6 0 13 2.5t13 5.5q10 7 14 22.5t-6 45.5zM348 8l48 124 72-44zM418 186l108 270 106-270-106-68zM574 82l72 46 48-126z" />
<glyph unicode="&#x48;" glyph-name="H" d="M134 838q-30 0-51-21t-21-51v-636q0-30 21-51t51-21h756q30 0 51 21t21 51v490q0 30-21 51t-51 21h-418q-24 25-42.5 60.5t-41.5 59.5q-10 9-23 15.5t-27 6.5h-204v4zM134 798h204q7 0 11.5-2.5t10.5-5.5q24-30 44.5-61.5t41.5-64.5q3-3 6.5-5.5t11.5-2.5h426q13 0 22.5-9t9.5-23v-490q0-13-9-21.5t-23-8.5h-756q-13 0-22.5 8t-9.5 22v638q0 9 9 17.5t23 8.5zM682 580q-57-16-114.5-32.5t-117.5-33.5q-10-4-16-10.5t-6-17.5v-196h-10q-6 0-13-0.5t-13-3.5q-13-3-24-10t-20-16q-10-10-16-21t-6-25q0-13 7.5-24t18.5-16q10-3 22-3t26 3q13 4 24 10.5t22 17.5q9 9 15.5 19.5t6.5 24.5v134l182 52v-80h-8q-7 0-13.5-0.5t-14.5-3.5q-13-3-23-9t-21-17q-10-10-16-21t-6-23q0-13 7.5-25t18.5-15q10-4 23-4t27 4q13 3 23 9t21 17q10 10 16 20t6 24v258q3 7 0.5 12t-8.5 2zM654 536v-58l-186-54v58zM642 312h8q3 0 3.5-0.5t0.5-3.5-2.5-6.5-5.5-11.5q-7-6-13.5-9.5t-14.5-8.5q-6-3-11.5-3t-10.5 3q-3 0-3.5 0.5t-0.5 5.5q0 3 2.5 6.5t7.5 9.5q6 7 12 11t14 7h14zM418 250h10q3 0 3.5-0.5t0.5-3.5-2.5-6.5-7.5-11.5q-6-6-12-10.5t-14-7.5q-6-3-12.5-3t-9.5 3q-3 0-3.5 0.5t-0.5 3.5q0 4 2.5 8t5.5 10q7 7 13.5 11t14.5 7h12z" />
<glyph unicode="&#x49;" glyph-name="I" d="M688 394l-58-64 132-140h-50q-50 0-95 19-45 18-78.5 51t-52.5 77q-20 44-20 95 0 66-26 125-25 59-69.5 103t-103.5 70-127 26h-42v-82h42q50 0 95-19t78.5-52 52.5-77q20-44 20-94 0-66 26-125 25-59 69.5-103t103.5-70 127-26h50l-132-122 58-54q141 141 152 151.5t82 78.5q-55 58-68 70t-166 162zM484 670q12-19 21.5-39.5t18.5-38.5q58 73 129.5 81.5t112.5 8.5l-132-124 58-52q154 153 164.5 162.5t69.5 65.5q-67 67-78.5 78t-155.5 152l-58-66 132-138h-55q-33-1-71-8.5t-79-26.5q-40-18-77-55zM102 194v-82q34 0 111 9.5t163 92.5q-12 19-21.5 36t-18.5 38q-64-76-133-85t-101-9zM692-92l-90 82 110 102q-70 1-133 29-63 27-109.5 73.5t-74.5 108.5q-27 62-27 133 0 46-18 86t-48.5 70-71.5 47q-40 17-86 17h-62v124h62q72 0 135-27 64-28 111-74.5t75-109.5q27-62 27-133 0-46 18-87 18-40 48.5-70t71.5-48q40-17 86-17l-114 116 86 94 262-258zM664-10l28-26 206 202-202 200-32-32 152-160h-96q-55 0-103 21-49 20-85 56t-57 83q-21 48-21 102 0 63-24 118t-66 96-97 64q-56 24-119 24h-22v-40h22q55 0 103-21 49-20 85-56t57-83q21-48 21-102 0-63 24-118 24-56 66-97t97-65q56-24 119-24h100zM126 92h-44v122h44q40 0 93.5 14t100.5 76l20 30 12-34q6-18 15.5-34t26.5-36l8-12-12-12q-72-76-143-95t-121-19zM122 132h4q43 0 101.5 13.5t120.5 72.5q-6 9-10 17t-10 17q-58-61-119-71.5t-87-10.5h-4v-38h4zM692 472l-90 82 110 102q-42-3-88-17.5t-84-64.5l-20-28-12 34q-9 24-18 42.5t-18 33.5l-10 14 14 12q57 58 124 76t124 18l-110 114 86 94 90-90q61-61 76.5-76t47.5-42l48-50-208-208zM664 554l28-24 188 188 18 16-22 18q-27 27-42 41.5t-80 76.5l-62 62-32-34 152-160h-78q-49 0-109.5-12t-116.5-60q6-10 10-20t10-22q49 49 104.5 61.5t105.5 12.5h78z" />
<glyph unicode="&#x4a;" glyph-name="J" d="M16 346q-12-12-12-28t12-28l338-338q6-12 12-14t12-2 16 5 16 11l528 528q6 0 7 10t1 22v338q0 12-10 22t-22 10h-346q-6 0-16-5t-16-11zM614 684q12 18 33 25t39 7q40 0 71-30.5t31-71.5q0-18-10-35t-22-29q-12-18-29.5-25t-40.5-7q-18 0-39 7t-33 25q-12 12-22 30t-10 42q0 22 10 36t22 26z" />
<glyph unicode="&#x4b;" glyph-name="K" d="M116 870q-10 0-18-8.5t-8-19.5v-788q0-9 7.5-17.5t18.5-8.5h788q10 0 18 8.5t8 17.5q0 10-7.5 19t-18.5 9h-758v760q0 13-8 20.5t-22 7.5zM682 656q-13 0-22.5-10.5t-9.5-21.5q0-9 9-17.5t23-8.5h80l-250-236-90 76q-3 6-8.5 7t-13.5 1q-3 0-8-2.5t-10-5.5l-186-170q-10-6-10.5-19t6.5-21q6-10 19-10t21 10l168 152 90-76q6-10 19-10t21 10l272 254v-84q0-10 7.5-19t18.5-9q10 0 18 8.5t8 19.5v150q0 10-7.5 19t-18.5 9h-146v4z" />
<glyph unicode="&#x4c;" glyph-name="L" d="M700 420h-98v230h-170v-230h-98l176-180h16zM526 240h-258v-56h496v56h-238z" />
<glyph unicode="&#x4d;" glyph-name="M" d="M934 434l-88 264q-16 39-50.5 61.5t-73.5 22.5h-424q-40 0-73-22.5t-47-61.5l-88-264v-204q0-46 33.5-81t80.5-35h616q46 0 80 34.5t34 81.5v204zM232 692q6 21 22 33.5t40 12.5h440q21 0 38.5-14t23.5-32l94-266h-134v66q0 24-14.5 41.5t-37.5 20.5v64q0 22-15 37t-39 15h-284q-24 0-39-14.5t-15-37.5v-64q-24-3-34-20.5t-10-41.5v-66h-138zM682 426q-10 0-19.5-7t-12.5-19q0-4-25.5-56t-112.5-52-111 51.5-27 56.5q0 12-9 19t-23 7h-30v84h400v-84h-30zM672 554h-320v72h316v-72h4zM886 230q0-24-15-48t-39-24h-650q-22 0-37 24t-15 48v152h190q16-43 62-88.5t130-45.5 129.5 45 62.5 89h182v-152z" />
<glyph unicode="&#x4e;" glyph-name="N" d="M472-48q6-6 17-11t23-5 23 5 17 11l378 338q12 12 17 29t-1 35-22 24-34 6h-158v442q0 24-15.5 40t-38.5 16h-340q-22 0-38-16t-16-40v-434h-150q-18-6-31-13t-25-25q-6-18-1-35t17-29z" />
<glyph unicode="&#x4f;" glyph-name="O" d="M518 584l-218 218q-25 31-65.5 31t-70.5-31q-31-30-31-67t31-69l218-218-218-218q-31-31-31-70.5t31-65.5q25-31 65.5-31t70.5 31l218 218 220-218q30-31 67-31t69 31q30 30 30 70t-30 66l-218 218 218 218q30 31 30 68.5t-30 67.5q-31 31-70.5 31t-65.5-31z" />
<glyph unicode="&#x50;" glyph-name="P" d="M850 904h-684q-66 0-116-50.5t-50-121.5v-386q0-70 50-118t116-48h504q18 0 34-6t28-18q30-28 64.5-62t69.5-64q18-18 35-30t29-24q18-12 27-22t27-10q6 0 11 1t5 7q12 6 18 16t6 16v748q0 70-51 121t-123 51z" />
<glyph unicode="&#x51;" glyph-name="Q" d="M116 870q-10 0-18-8.5t-8-19.5v-788q0-9 7.5-17.5t18.5-8.5h788q10 0 18 8.5t8 17.5q0 10-7.5 19t-18.5 9h-758v760q0 13-8 20.5t-22 7.5zM320 132h-92q-10 0-19 8.5t-9 17.5v218q0 10 8.5 19t19.5 9h92q10 0 19-8.5t9-19.5v-218q3-9-5.5-17.5t-22.5-8.5zM254 186h44v168h-44v-168zM498 132h-92q-10 0-19 8.5t-9 17.5v294q0 10 8.5 19t19.5 9h92q10 0 19-8.5t9-19.5v-294q3-9-5.5-17.5t-22.5-8.5zM432 186h44v248h-44v-248zM682 132h-94q-10 0-19 8.5t-9 17.5v406q0 10 8.5 18t19.5 8h94q9 0 17.5-7.5t8.5-18.5v-406q0-9-8.5-17.5t-17.5-8.5zM610 186h44v356h-44v-356zM860 132h-94q-10 0-18 8.5t-8 17.5v552q0 10 7.5 19t18.5 9h94q9 0 17.5-8.5t8.5-19.5v-552q3-9-4.5-17.5t-21.5-8.5zM792 186h46v502h-46v-502z" />
<glyph unicode="&#x52;" glyph-name="R" d="M798 540q0-4-1.5-7.5t-4.5-6.5l-266-266q-3-3-7-4.5t-7-1.5-7 1.5-7 4.5l-266 266q-3 3-4.5 6t-1.5 8q0 3 1.5 6t4.5 6l30 30q1 1 5 2.5t7 1.5q4 0 7.5-1t6.5-3l224-226 224 226q3 1 6 2.5t8 1.5q3 0 6.5-1t5.5-3l30-30q3-3 4.5-6t1.5-6z" />
<glyph unicode="&#x53;" glyph-name="S" d="M688 650q0-4-1.5-7.5t-4.5-6.5l-224-224 224-226q3-1 4.5-5t1.5-7q0-4-1.5-7.5t-4.5-6.5l-28-28q-3-3-7-4.5t-7-1.5-7 1.5-7 4.5l-266 266q-3 3-4.5 6t-1.5 8q0 3 1.5 6t4.5 6l266 266q3 3 7 4.5t7 1.5 7-1.5 7-4.5l28-28q3-3 4.5-6t1.5-6z" />
<glyph unicode="&#x54;" glyph-name="T" d="M670 412q0-4-1.5-7.5t-4.5-6.5l-266-266q-3-3-7-4.5t-7-1.5-7 1.5-7 4.5l-28 28q-3 3-4.5 6t-1.5 8q0 3 1.5 6.5t4.5 5.5l224 226-224 224q-3 3-4.5 6t-1.5 8q0 3 1.5 6t4.5 6l28 28q3 3 7 4.5t7 1.5 7-1.5 7-4.5l266-266q3-3 4.5-6t1.5-6z" />
<glyph unicode="&#x55;" glyph-name="U" d="M798 284q0-4-1.5-7.5t-4.5-6.5l-30-28q-1-3-5-4.5t-7-1.5q-4 0-7.5 1.5t-6.5 4.5l-224 224-224-224q-3-3-6-4.5t-8-1.5q-3 0-6.5 1.5t-5.5 4.5l-30 28q-3 3-4.5 6t-1.5 8q0 3 1.5 6t4.5 6l266 266q3 3 7 4.5t7 1.5 7-1.5 7-4.5l266-266q3-3 4.5-6t1.5-6z" />
<glyph unicode="&#x56;" glyph-name="V" d="M832 256l192 224h-130q-3 42-14.5 80.5t-31.5 73.5q-21 37-49 68-28 32-62 56.5t-73 41.5q-39 18-82 26h-8q-15 3-30 4.5t-32 1.5v0 0q-68 0-130-23-61-22-110.5-62t-83.5-95q-35-54-50-118v0 0q0-1-1-2.5t-1-3.5v-8q-1 0-1.5-1t-0.5-3v-2q0-1-1-3.5t-1-4.5v0 0q-1-9-1.5-19t-2.5-19v-40q1-10 1.5-19.5t2.5-18.5v0 0q0-3 1-4.5t1-3.5v-4.5t2-3.5v-6q0-1 1-2.5t1-3.5v0 0q15-64 50-118 34-55 83.5-95t110.5-62q62-23 130-23 64 0 123.5 20.5t110.5 61.5l14 12-86 92-12-10q-33-24-70.5-36t-79.5-12q-53 0-100 20t-81.5 54.5-54.5 81.5-20 100 20 100 54.5 81.5 81.5 54.5 100 20q49 0 94-17 45-16 80-46t58-71 28-90h-148z" />
<glyph unicode="&#x57;" glyph-name="W" d="M448 88v720q0 10-6.5 17t-17.5 7h-144q-10 0-17-6.5t-7-17.5v-720q0-10 6.5-17t17.5-7h144q10 0 17 6.5t7 17.5zM744 832h-144q-9 0-16.5-6.5t-7.5-17.5v-720q0-10 6.5-17t17.5-7h144q10 0 17 6.5t7 17.5v720q0 10-6.5 17t-17.5 7z" />
<glyph unicode="&#x58;" glyph-name="X" d="M810 494l-556 332q-6 3-11 4.5t-11 1.5q-16 0-28-11.5t-12-28.5v0-688q0-16 11.5-28t28.5-12q6 0 11 1.5t11 4.5l556 332q10 7 16 19.5t6 26.5q0 13-5.5 25t-16.5 21z" />
<glyph unicode="&#x59;" glyph-name="Y" d="M256 768l512-320-512-320v640z" />
<glyph unicode="&#x5a;" glyph-name="Z" d="M256 128h192v640h-192v-640zM576 768v-640h192v640h-192z" />
<glyph unicode="&#x61;" glyph-name="a" d="M64 896v-896h896v896h-896zM854 102h-684v692h684v-692z" />
<glyph unicode="&#x62;" glyph-name="b" d="M198 322h-116q-1 1-2.5 1.5t-3.5 0.5q-9 0-15.5-6.5t-8.5-15.5h-2v-112h2q1-7 6.5-12.5t13.5-7.5v0h174q13 0 24.5 6.5t17.5 17.5l108 108-110 110zM970 644l-192 136q-3 3-6 3t-6-1q-4-1-6-5t-2-7v-58h-152q-9 0-16.5-3t-13.5-9v0l-108-108 108-108 76 74h106v-60q0-4 1.5-7t6.5-5q3-1 7-1t7 1l190 138q1 1 2.5 4t1.5 6v0 0q0 3-1 5.5t-3 4.5zM968 272l-190 138q-3 1-7 1t-7-1-4.5-4-1.5-8v-60h-106l-364 364q-6 10-17 17t-25 7v0h-174q-7-1-13-6.5t-9-13.5v0-112q1-9 9-15.5t17-6.5h2.5t3.5 2h116l378-378q6-6 13-9t15-3v0h154v-58q0-3 1.5-6.5t4.5-5.5q3-1 7-1t7 3l190 136q3 1 4.5 4t1.5 6v0 0q0 3-1.5 5.5t-4.5 4.5z" />
<glyph unicode="&#x63;" glyph-name="c" d="M822 270h-364q-9 0-15.5-7.5t-6.5-16.5v0-108q0-9 6.5-15.5t15.5-6.5v0h364q9 0 15.5 6.5t6.5 15.5v108q0 9-6.5 16.5t-15.5 7.5zM310 270h-108q-9 0-15.5-7.5t-6.5-16.5v-108q0-9 6.5-15.5t15.5-6.5h108q9 0 16.5 6.5t7.5 15.5v108q0 9-7.5 16.5t-16.5 7.5zM822 526h-364q-9 0-15.5-7.5t-6.5-16.5v0-108q0-9 6.5-15.5t15.5-6.5v0h364q9 0 15.5 6.5t6.5 15.5v108q0 9-6.5 16.5t-15.5 7.5zM310 526h-108q-9 0-15.5-7.5t-6.5-16.5v-108q0-9 6.5-15.5t15.5-6.5h108q9 0 16.5 6.5t7.5 15.5v108q0 9-7.5 16.5t-16.5 7.5zM436 650v0q0-9 6.5-16.5t15.5-7.5v0h364q9 0 15.5 7.5t6.5 16.5v108q0 9-6.5 15.5t-15.5 6.5v0h-364q-9 0-15.5-6.5t-6.5-15.5v-108zM310 780h-108q-9 0-15.5-6.5t-6.5-15.5v-108q0-9 6.5-16.5t15.5-7.5h108q9 0 16.5 7.5t7.5 16.5v108q0 9-7.5 15.5t-16.5 6.5z" />
<glyph unicode="&#x64;" glyph-name="d" d="M148 730v-80h24v110h-22l-34-34 14-14zM132 484q6 0 12-3t6-11q0-10-12.5-21t-45.5-37v-18h82v20h-46q22 16 33 29t11 27q0 16-12 26t-30 10q-10 0-21.5-4.5t-20.5-13.5l14-16q6 6 12.5 9t17.5 3zM150 194q9 1 16.5 8t7.5 18q0 13-11 21.5t-31 8.5q-15 0-24.5-5t-17.5-13l12-14q6 4 13 7t15 3q9 0 14.5-3t5.5-9-5.5-9-14.5-3h-14v-20h14q12 0 17-3t5-11q0-6-5.5-10t-14.5-4-17 4-13 10l-14-16q6-7 17.5-12.5t26.5-5.5q19 0 31.5 9t12.5 23q0 12-9 19t-17 7zM900 756h-640q-13 0-23.5-10t-10.5-24v-32q0-15 10-25.5t24-10.5h640q15 0 25.5 10.5t10.5 25.5v32q0 13-10.5 23.5t-25.5 10.5zM900 502h-640q-13 0-23.5-10.5t-10.5-25.5v-32q0-13 10-23.5t24-10.5h640q15 0 25.5 10t10.5 24v32q0 15-10.5 25.5t-25.5 10.5zM900 246h-640q-13 0-23.5-10t-10.5-24v-32q0-15 10-25.5t24-10.5h640q15 0 25.5 10.5t10.5 25.5v32q0 13-10.5 23.5t-25.5 10.5z" />
<glyph unicode="&#x65;" glyph-name="e" d="M416 756h-110q-9 0-15.5-6.5t-6.5-15.5v0 0 0-572q0-9 6.5-15.5t15.5-6.5h110q9 0 15.5 6.5t6.5 15.5v0 0 0 572q0 9-6.5 15.5t-15.5 6.5zM740 162v572q0 9-6.5 15.5t-15.5 6.5h-110q-9 0-15.5-6.5t-6.5-15.5v0 0 0-572q0-9 6.5-15.5t15.5-6.5h110q9 0 15.5 6.5t6.5 15.5v0 0z" />
<glyph unicode="&#x66;" glyph-name="f" d="M858 718q0 4-2.5 8t-7.5 6q-3 1-7 1t-9-1l-60-44-4-4q-49 49-115 77.5t-141 28.5q-51 0-98-13-47-14-87.5-38t-74.5-59q-33-34-56-76v0q-4-9-1.5-18.5t11.5-15.5v0 0l84-48q9-4 19-1.5t15 11.5v0 0q28 49 78 79.5t110 30.5q37 0 71-12.5t61-33.5l-10-8-60-42q-4-3-5.5-7t-0.5-9q0-4 2.5-7t7.5-5l260-88q3-1 7-1t7 3q3 1 4.5 4t1.5 8v274zM818 326v0 0l-84 48q-9 4-19 1.5t-15-11.5v0 0q-28-49-78-79.5t-110-30.5q-37 0-71 12.5t-61 33.5l10 8 60 42q4 3 5.5 7t0.5 9q0 4-2.5 7t-7.5 5l-260 88q-3 1-7 1t-7-3q-3-1-4.5-4t-1.5-8v-274q0-4 2.5-8t7.5-6q3-1 7-1t9 1l60 44 4 4q49-49 115-77.5t141-28.5q51 0 98 13 47 14 87.5 38t74.5 59q33 34 56 76v0q4 9 1.5 18.5t-11.5 15.5z" />
<glyph unicode="&#x67;" glyph-name="g" d="M990 292q10-4 16.5-12.5t11.5-19.5q4-12 5.5-22.5t-1.5-19.5l-4-25q-5-24-10-54t-10-54l-4-25q-3-9-9-17.5t-15-14.5q-9-7-19-10.5t-21-3.5h-836q-12 0-21.5 3t-20.5 11q-9 6-14 14.5t-8 17.5l-4 25q-5 24-10 54t-10 54l-4 25q-6 25 2.5 43.5t29.5 30.5l25 17q26 17 56 38t56 38l25 17h100l-27-21q-27-20-60-45t-60-45l-27-21h182q4 0 7.5-1.5t6.5-6.5l40-114h308l40 114q4 4 7 6t5 2h182l-27 21q-27 20-60 45t-60 45l-27 21h102l25-17q26-17 56-38t56-38zM778 622l-42-39q-41-39-91-86t-91-86l-42-39-42 39q-41 39-91 86t-91 86l-42 39h170v262h194v-262h168z" />
<glyph unicode="&#x68;" glyph-name="h" d="M870 642q22 0 40.5-7.5t33.5-22.5q13-13 20.5-32t7.5-40v-296q0-21-7-39t-21-33q-15-15-33-23.5t-41-8.5h-716q-21 0-39 8.5t-33 23.5-22.5 33-7.5 39v296q0 21 7.5 39.5t22.5 32.5q15 15 33 22.5t39 7.5h256v114l32-29t70-64 70-64l32-29-32-29q-32-28-70-62.5t-70-63.5l-32-29v114h-216v-216h636v216h-154v142h194z" />
<glyph unicode="&#x69;" glyph-name="i" d="M772 618q-27 0-54-7.5t-54-24.5q-25-16-46-33.5t-36-34.5q-15-18-36-44.5t-48-61.5q-25-33-44-57t-34-41q-13-15-33-35t-47-43q-25-22-52-39.5t-56-28.5q-28-10-59.5-16t-66.5-6h-106v144h106q28 0 55.5 8.5t54.5 25.5q25 15 46 32t36 34q15 18 36 45t48 63q33 42 58.5 73.5t45.5 54.5q21 22 50 44.5t70 45.5q39 22 80.5 34t85.5 12h36v122l34-29q33-28 73.5-62.5t74.5-63.5l34-29-34-29q-33-28-73.5-62.5t-74.5-63.5l-34-29v102h-36zM276 528q-37 40-79.5 60t-90.5 20h-106v144h106q72 0 136.5-28t123.5-84q-6-7-16-19t-22-27q-10-15-17-23t-9-11q-4-6-10.5-13.5t-15.5-18.5zM808 280v102l34-29q33-28 73.5-62.5t74.5-63.5l34-29-34-29q-33-28-73.5-62.5t-74.5-63.5l-34-29v122h-36q-72 0-138 30t-128 90q24 30 42 53t32 41q0 1 1.5 3t4.5 5q3 4 4.5 7t3.5 5q43-45 87-67.5t91-22.5h36z" />
<glyph unicode="&#x6a;" glyph-name="j" d="M64 384v-256h896v256h-896zM256 192h-128v64h128v-64zM320 704h128v192h128v-192h128l-192-192z" />
<glyph unicode="&#x6b;" glyph-name="k" d="M704 768h-128v192h-128v-192h-128l192-192zM896 768v-704h-768v704h-128v-832h1024v832h-128z" />
<glyph unicode="&#x6c;" glyph-name="l" d="M512 774v122l-160-162 160-164v122q49 0 93-19 44-20 76.5-53t51.5-77q19-45 19-95 0-30-7-59t-21-55l58-60q24 39 37 82.5t13 91.5q0 67-25 127-25 59-68.5 103.5t-102.5 69.5q-58 26-124 26zM512 204q-49 0-93 19-44 20-76.5 53t-51.5 77q-19 45-19 95 0 30 7 59t21 55l-58 60q-24-37-37-81.5t-13-92.5q0-67 25-127 25-59 68.5-103.5t102.5-69.5q58-26 124-26v-122l160 162-160 164v-122z" />
<glyph unicode="&#x6d;" glyph-name="m" d="M994-28h-964q-12 0-21 9t-9 21v722q0 12 9 21t21 9h318q12 0 21-9t9-21-9-21-21-9h-288v-662h904v662h-288q-12 0-21 9t-9 21 9 21 21 9h318q12 0 21-9t9-21v-722q0-12-9-21t-21-9zM512 160q-6 0-11.5 1.5t-10.5 6.5l-186 186q-7 9-7 21t7 21q9 9 22 9t22-9l134-134v632q0 12 9 21t21 9 21-9 9-21v-630l134 132q9 9 22 9t22-9q7-9 7-21t-7-21l-186-186q-4-4-10-6t-12-2z" />
<glyph unicode="&#x6e;" glyph-name="n" d="M776 424q7 9 7 20t-7 20q-9 7-20 7t-20-7l-196-198v652q0 12-8 20t-20 8-20-8-8-20v-652l-196 198q-9 7-20.5 7t-19.5-7q-7-9-7-20t7-20l244-244q9-7 20-7t20 7zM970 246q0 12 7.5 20t18.5 8q12 0 20-8t8-20v-268q0-12-8-20t-20-8h-968q-12 0-20 8t-8 20v268q0 12 8 20t20 8q10 0 18-8t8-20v-240h916v240z" />
<glyph unicode="&#x6f;" glyph-name="o" d="M870 308v-234h-716v234h-138v-304q0-28 20.5-48t49.5-20h852q28 0 49 19.5t21 48.5v304h-138zM500 330l-198 238-10.5 14t14.5 14h110v348l1 8t19 8h158q13 0 15.5-7l2.5-7v-342h102q28 0 19-15l-9-15-27-35q-26-35-60-79t-65-83q-31-40-40-49-12-12-22-5z" />
<glyph unicode="&#x70;" glyph-name="p" d="M922 58h-820v410h164v-82h-82v-246h656v246h-82v82h164v-410zM712 600l-52 60-108-98v316h-80v-320l-104 98-56-60 200-194z" />
<glyph unicode="&#x71;" glyph-name="q" d="M512 620q39 0 74-14.5t62-41.5q27-28 41.5-63t14.5-73q0-27-6-51t-20-47q-12-21-30.5-38.5t-39.5-29.5l-32-20v-178h-128v178l-32 20q-45 25-70.5 70t-25.5 96q0 37 14.5 72t41.5 64q27 27 62.5 41.5t73.5 14.5zM554 896h-84v-128h84v128zM812 788l-76-76 60-60 76 76zM212 788l-60-60 76-76 60 60zM512 684q-52 0-99-20-47-21-81.5-55.5t-55.5-81.5q-20-46-20-99 0-70 35.5-129.5t92.5-92.5v-206h256v206q57 33 92.5 91.5t35.5 130.5q0 52-20 99-21 47-55.5 81.5t-81.5 55.5q-46 20-99 20zM960 470h-128v-84h128v84zM192 470h-128v-84h128v84z" />
<glyph unicode="&#x72;" glyph-name="r" d="M922 58h-820v410h164v-82h-82v-246h656v246h-82v82h164v-410zM712 600l-52 60-108-98v316h-80v-320l-104 98-56-60 200-194z" />
<glyph unicode="&#x73;" glyph-name="s" d="M390 730v-126h-94v-156h94v-460h190v460h130l6.5 47t9.5 109h-144v106t12.5 25 29.5 13h104v160h-142q-75 0-115-24-40-25-58-56t-20-60q-3-29-3-38z" />
<glyph unicode="&#x74;" glyph-name="t" d="M972 348v-340h-196v318q0 60-23.5 97t-76.5 37q-42 0-66.5-22.5t-35.5-49.5q-4-10-5-22t-1-26v-332h-198v85q1 85 1 191v202q0 95-1 116h198v-84q-1 0-1.5-1l-0.5-1h2v2q19 30 58.5 64t119.5 34q49 0 90-16 42-17 72-50t47-83q17-51 17-119zM164 888q-51 0-81.5-29t-30.5-73q0-43 29-73.5t79-30.5h2q51 0 81.5 30t30.5 74q-1 43-30.5 72.5t-79.5 29.5zM62 8h198v594h-198v-594z" />
<glyph unicode="&#x75;" glyph-name="u" d="M868 484q39 3 65 18.5t35 39.5q-13-7-48.5-14t-59.5 2q-1 6-2.5 11.5t-1.5 10.5q-19 67-74.5 113t-121.5 39q4 3 10 4.5t12 3.5q6 3 34.5 11t21.5 23q-6 12-42.5-1.5t-47.5-16.5q13 4 30 13.5t20 24.5q-19-3-38-11.5t-34-22.5l8 12t6 14q-52-33-86-94.5t-60-127.5q-19 19-36 33.5t-32 22.5q-43 24-99 49t-139 55q-1-27 16-59.5t64-56.5q-10 1-26.5-1t-31.5-5q6-31 28.5-55.5t75.5-36.5q-24-1-38-7.5t-26-18.5q12-21 39-40.5t75-13.5q-52-24-33-55t63-25q-37-37-83-56-46-18-92.5-18t-89.5 17q-44 17-77 49 87-118 214-158 127-39 250-16t221 100q97 77 125 192 43-1 69 11t41 29q-24-3-54 0t-50 12z" />
<glyph unicode="&#x76;" glyph-name="v" d="M800 734h-160v40q0 24-17 41t-41 17h-140q-24 0-41-17t-17-41v-40h-160v-30h42l48-582q0-24 17-41t41-17h282q24 0 41 17t17 41l48 582h40v30zM414 774q0 12 8 20t20 8h140q12 0 20-8t8-20v-40h-196v40zM684 124v-2q0-12-9-20t-21-8h-282q-12 0-21 8t-9 20v2l-46 580h434zM498 640h28v-482h-28v482zM640 640h-30l-20-482h28zM414 640h-30l22-482h28z" />
<glyph unicode="&#x77;" glyph-name="w" d="M848 840h-138v88q0 13-9 22.5t-23 9.5h-1.5t-2.5-2q0 1-1 1.5l-1 0.5h-326q-13 0-22.5-9t-9.5-23v-88h-136q-30 0-50-20.5t-20-49.5v-114h60v-652q0-28 20-48t50-20h550q28 0 48 19.5t20 48.5v652h62v114q0 28-20.5 49t-49.5 21zM378 896h268v-56h-268v56zM792 4q0-3-0.5-3.5t-3.5-0.5h-550q-3 0-4.5 0.5t-1.5 3.5v652h560v-652zM852 718h-680v52q0 3 1.5 4.5t4.5 1.5h670q3 0 3.5-1.5t0.5-4.5v-52zM628 580h64v-524h-64v524zM480 580h64v-524h-64v524zM332 580h66v-524h-66v524z" />
<glyph unicode="&#x78;" glyph-name="x" d="M1010 828l-106 106q-10 10-21 16t-25 8q-3 1-5.5 1.5t-4.5 0.5q-9 0-16.5-3t-13.5-9l-766-766q-1-1-3-4.5t-5-11.5l-42-188q-1-3-1.5-6t-0.5-6q0-6 2.5-11.5t7.5-10.5q4-4 10-6t12-2h10l184 48q3 1 7 4.5t7 5.5l660 662 104 106q10 9 15 18.5t5 17.5q0 9-3 16.5t-11 13.5zM198 50l-122-30 32 122 6 6 90-90zM254 106l-92 90 574 574 90-90zM876 728l-92 90 70 70 90-90z" />
<glyph unicode="&#x79;" glyph-name="y" d="M606 658q-3 3-9 3.5t-9 0.5l-250-72q-6 0-12-5t-6-13v-204q-9 6-21 10t-23 4q-36 0-60-23t-24-53 25.5-53 58.5-23 61.5 21.5 28.5 54.5v164l208 58v-102q-10 6-21.5 10t-22.5 4q-37 0-60.5-23t-23.5-53 25.5-53 58.5-23 58.5 23 25.5 53v276q0 3-2.5 8t-5.5 10zM276 266q-19 0-31.5 9t-12.5 27q0 12 13.5 23t30.5 11q16 0 30-8t14-22q0-16-12-28t-32-12zM366 510v44l208 58v-48zM530 324q-19 0-31.5 8.5t-12.5 25.5q0 18 13.5 27t30.5 9q19 0 31.5-9t12.5-27q0-16-13.5-25t-30.5-9zM748 826h-592q-33 0-56.5-23.5t-23.5-56.5v-592q0-33 23.5-56.5t56.5-23.5h592q33 0 56.5 23.5t23.5 56.5v14q58 40 95 97 36 58 48 122.5t0 131.5q-13 66-53 125-18 27-40.5 47.5t-49.5 40.5v14q3 33-20.5 56.5t-59.5 23.5zM792 150q0-16-11.5-28t-28.5-12h-596q-16 0-28 11.5t-12 28.5v596q0 16 11.5 28t28.5 12h592q16 0 28-11.5t12-28.5v-156q-57-19-83-74t-7-112q10-30 35-54.5t55-35.5v-164h4zM940 448q0-67-28.5-127.5t-79.5-104.5v108q0 6-3 12t-9 6q-43 9-66.5 46.5t-13.5 81.5q6 30 28 52t52 28q6 3 9 7.5t3 10.5v112q51-43 79.5-103.5t28.5-128.5z" />
<glyph unicode="&#x7a;" glyph-name="z" d="M898 582q30 0 51-17t27-47q6-22-0.5-49t-29.5-45l-198-142 80-236q4-24-2-50t-30-44q-12-6-24-11t-24-5-26.5 5-19.5 11l-206 142-204-150q-24-18-51.5-18t-50.5 18q-24 18-31 45t-1 57l78 236-204 142q-18 18-28 45.5t-4 56.5q6 24 30.5 44t47.5 20h252l80 236q12 24 34 40t52 16 52-17 28-47l78-236h244z" />
<glyph unicode="&#xe900;" glyph-name="E900" d="M988 79q16 0 26 10.5t10 25.5q0 16-10 26t-26 10h-681q-11 38-46.5 65t-81.5 27q-50 0-89-37t-39-91 39-91 89-37q46 0 79 27.5t44 69.5zM179 54q-27 0-44 17t-17 44 17 44.5 44 17.5 44.5-17.5 17.5-44.5-17.5-44-44.5-17zM51 474q0-16 10.5-26t25.5-10h353q12-42 46.5-70t76.5-28 77 28 46 70h302q16 0 26 10t10 26q0 15-10 25t-26 10h-302q-8 39-42.5 66t-80.5 27-78.5-27.5-44.5-70.5h-353q-15 0-25.5-9.5t-10.5-20.5v0zM563 535q27 0 44.5-17.5t17.5-43.5q0-27-17.5-44.5t-44.5-17.5-44 17.5-17 44.5q0 26 19 43.5t42 17.5v0zM768 863h-681q-15 0-25.5-10.5t-10.5-25.5 10.5-25.5 25.5-10.5h681q12-42 46.5-69.5t76.5-27.5q54 4 93.5 41.5t39.5 91.5-38 93.5-95 39.5q-42 0-76.5-27.5t-46.5-69.5zM952 832q0-27-17-44t-44-17-44.5 17-17.5 44 17.5 44 44.5 17 44-19 17-42v0z" />
<glyph unicode="&#xe901;" glyph-name="genres" d="M480 800c-41.345 0-76.617-27.016-90-64h-262v-64h262c13.383-36.984 48.655-64 90-64s76.617 27.016 90 64h326v64h-326c-13.383 36.984-48.655 64-90 64zM480 736c18.052 0 32-13.948 32-32s-13.948-32-32-32c-18.052 0-32 13.948-32 32s13.948 32 32 32zM704 544c-41.345 0-76.617-27.016-90-64h-486v-64h486c13.383-36.984 48.655-64 90-64s76.617 27.016 90 64h102v64h-102c-13.383 36.984-48.655 64-90 64zM704 480c18.052 0 32-13.948 32-32s-13.948-32-32-32c-18.052 0-32 13.948-32 32s13.948 32 32 32zM352 288c-41.345 0-76.617-27.016-90-64h-134v-64h134c13.383-36.984 48.655-64 90-64s76.617 27.016 90 64h454v64h-454c-13.383 36.984-48.655 64-90 64zM352 224c18.052 0 32-13.948 32-32s-13.948-32-32-32c-18.052 0-32 13.948-32 32s13.948 32 32 32z" />
<glyph unicode="&#xe902;" glyph-name="next-track" horiz-adv-x="1103" d="M704.948 450.258v63.631l-594.046 445.226-75.729-31.807v-890.468l75.729-31.815 594.046 445.232zM877.954 933.171h146.188v-906.894h-146.188v906.894z" />
<glyph unicode="&#xe903;" glyph-name="prev-track" d="M320.194 382.109v63.635l594.057 445.217 75.721-31.806v-890.466l-75.721-31.815-594.057 445.234zM147.206 865.022h-146.206v-906.904h146.206v906.904z" />
</font>
</defs>
</svg>
